<?xml version="1.0" encoding="utf-8"?>
<!-- Generator: Adobe Illustrator 27.0.0, SVG Export Plug-In . SVG Version: 6.00 Build 0)  -->
<svg version="1.1" id="Layer_1" xmlns="http://www.w3.org/2000/svg" xmlns:xlink="http://www.w3.org/1999/xlink" x="0px" y="0px"
	 viewBox="0 0 512 512" style="enable-background:new 0 0 512 512;" xml:space="preserve">
<style type="text/css">
	.st0{fill:#A435F0;}
</style>
<g>
	<polygon class="st0" points="79.54,205.68 39.76,182.72 0,205.68 0,182.72 39.77,159.76 79.54,182.72 	"/>
	<path d="M0,224.97h20.83v50.62c0,13.08,9.77,19.45,18.94,19.45c9.25,0,18.94-6.54,18.94-19.63v-50.44h20.83v51.82
		c0,12.05-3.79,21.34-11.36,27.72c-7.58,6.37-17.05,9.47-28.59,9.47c-11.53,0-21-3.1-28.4-9.47S0,289.19,0,277.3V224.97z
		 M259.65,287.87c-6.31,5.62-13.49,8.37-21.68,8.37c-14.95,0-24.97-8.51-26.1-21.7h67.31c0,0,0.45-4.26,0.45-8.25
		c0-12.4-3.96-22.73-12.06-31.16c-7.91-8.44-18.24-12.57-30.81-12.57c-13.25,0-24.11,4.13-32.72,12.57
		c-8.44,8.44-12.74,19.45-12.74,33.23v0.68c0,13.6,4.3,24.45,12.74,32.55c8.44,8.09,19.63,12.22,33.23,12.22
		c15.82,0,28.4-6.24,37.84-16.99L259.65,287.87z M220.06,245.62c4.64-3.62,10.33-5.51,16.7-5.51c6.02,0,11.02,1.89,15.32,5.68
		c4.11,3.45,6.33,7.69,6.52,12.57h-46.2C213.07,253.33,215.62,249.08,220.06,245.62L220.06,245.62z M469.37,325.5
		c-8.45,19.96-17.29,26.74-30.85,26.74h-9.4v-18.47h7.6c4.66,0,9-1.75,13.13-11.29l4.13-9.54l-35.64-87.97h21.18l25.31,63.36
		l26-63.36H512L469.37,325.5L469.37,325.5z M160.65,191.74v41.08c-6.83-6.11-17.45-9.75-27.72-9.75c-12.23,0-22.55,4.3-30.99,13.08
		c-8.27,8.61-12.4,19.28-12.4,32.19c0,12.92,4.13,23.59,12.4,32.37c8.44,8.61,18.77,12.92,30.99,12.92c14.1,0,23.01-5.54,27.72-9.88
		v7.99h20.66V191.75L160.65,191.74L160.65,191.74z M154.45,287.29c-4.99,4.99-11.36,7.58-18.77,7.58c-7.4,0-13.43-2.59-18.42-7.58
		c-4.81-4.99-7.23-11.36-7.23-18.94c0-7.58,2.41-13.95,7.23-18.94c4.99-4.99,11.02-7.57,18.42-7.57s13.77,2.58,18.77,7.57
		c5.16,4.99,7.76,11.36,7.76,18.94C162.2,275.93,159.61,282.3,154.45,287.29z M386.21,223.24c-15.69,0-23.85,6.51-29.44,12.78
		c-2.24-4.26-8.53-12.78-23.24-12.78c-12.43,0-19.76,6.28-23.41,10.76v-9.02h-20.48v86.77h20.48v-49.93
		c0-11.71,7.23-20.14,16.87-20.14c9.82,0,15.5,7.4,15.5,19.28v50.79h20.49v-49.93c0-11.88,7.05-20.14,17.21-20.14
		c9.82,0,15.49,7.4,15.49,19.28v50.79h20.66v-53.71C416.35,235.4,404.19,223.25,386.21,223.24L386.21,223.24z"/>
</g>
</svg>
